{
    "asset" : {
        "generator" : "Khronos glTF Blender I/O v1.3.48",
        "version" : "2.0"
    },
    "scene" : 0,
    "scenes" : [
        {
            "name" : "Scene",
            "nodes" : [
                0,
                1
            ]
        }
    ],
    "nodes" : [
        {
            "mesh" : 0,
            "name" : "headband",
            "rotation" : [
                0.7071068286895752,
                0,
                0,
                0.7071067094802856
            ],
            "scale" : [
                1,
                1,
                1.5127434730529785
            ]
        },
        {
            "mesh" : 1,
            "name" : "Mesh_Mesh.015",
            "rotation" : [
                1,
                0,
                0,
                -4.371138828673793e-08
            ],
            "scale" : [
                0.13956062495708466,
                0.13956062495708466,
                0.13956062495708466
            ],
            "translation" : [
                0,
                0.12169814109802246,
                2.1555652618408203
            ]
        }
    ],
    "materials" : [
        {
            "doubleSided" : true,
            "emissiveFactor" : [
                0,
                0,
                0
            ],
            "name" : "Material.001",
            "pbrMetallicRoughness" : {
                "baseColorFactor" : [
                    0.0681721419095993,
                    0.2636992037296295,
                    0.8000000715255737,
                    1
                ],
                "metallicFactor" : 0,
                "roughnessFactor" : 0.5
            }
        },
        {
            "doubleSided" : true,
            "emissiveFactor" : [
                0,
                0,
                0
            ],
            "name" : "Material.002",
            "pbrMetallicRoughness" : {
                "baseColorFactor" : [
                    0.800000011920929,
                    0.4035950005054474,
                    0,
                    1
                ],
                "metallicFactor" : 0,
                "roughnessFactor" : 0.40225550532341003
            }
        }
    ],
    "meshes" : [
        {
            "name" : "headband",
            "primitives" : [
                {
                    "attributes" : {
                        "POSITION" : 0,
                        "NORMAL" : 1
                    },
                    "indices" : 2,
                    "material" : 0
                }
            ]
        },
        {
            "name" : "Mesh_Mesh.015",
            "primitives" : [
                {
                    "attributes" : {
                        "POSITION" : 3,
                        "NORMAL" : 4
                    },
                    "indices" : 5,
                    "material" : 1
                }
            ]
        }
    ],
    "accessors" : [
        {
            "bufferView" : 0,
            "componentType" : 5126,
            "count" : 3648,
            "max" : [
                1.8878734111785889,
                2.1248435974121094,
                0.15312878787517548
            ],
            "min" : [
                -1.9182616472244263,
                -1.5082311630249023,
                -0.355825811624527
            ],
            "type" : "VEC3"
        },
        {
            "bufferView" : 1,
            "componentType" : 5126,
            "count" : 3648,
            "type" : "VEC3"
        },
        {
            "bufferView" : 2,
            "componentType" : 5123,
            "count" : 21504,
            "type" : "SCALAR"
        },
        {
            "bufferView" : 3,
            "componentType" : 5126,
            "count" : 70,
            "max" : [
                2.490633964538574,
                2.1186599731445312,
                0.5582313537597656
            ],
            "min" : [
                -2.490633010864258,
                -2.618807077407837,
                -0.156815305352211
            ],
            "type" : "VEC3"
        },
        {
            "bufferView" : 4,
            "componentType" : 5126,
            "count" : 70,
            "type" : "VEC3"
        },
        {
            "bufferView" : 5,
            "componentType" : 5123,
            "count" : 90,
            "type" : "SCALAR"
        }
    ],
    "bufferViews" : [
        {
            "buffer" : 0,
            "byteLength" : 43776,
            "byteOffset" : 0
        },
        {
            "buffer" : 0,
            "byteLength" : 43776,
            "byteOffset" : 43776
        },
        {
            "buffer" : 0,
            "byteLength" : 43008,
            "byteOffset" : 87552
        },
        {
            "buffer" : 0,
            "byteLength" : 840,
            "byteOffset" : 130560
        },
        {
            "buffer" : 0,
            "byteLength" : 840,
            "byteOffset" : 131400
        },
        {
            "buffer" : 0,
            "byteLength" : 180,
            "byteOffset" : 132240
        }
    ],
    "buffers" : [
        {
            "byteLength" : 132420,
            "uri" : "data:application/octet-stream;base64,"
        }
    ]
}
